<svg xmlns:xlink="http://www.w3.org/1999/xlink" xmlns="http://www.w3.org/2000/svg" width="1289px" height="360px" viewBox="0 0 1289 360" style="overflow: hidden; display: block; width: 1289px; height: 360px;"><defs/><g style="pointer-events:visiblePainted" transform="translate(0.005938830485582969 0)" image-rendering="auto" shape-rendering="auto"><g><path fill="none" stroke="rgb(169,169,169)" d="M 629.4444444444445,60 L 629.4444444444445,100 L 485,100 L 485,120" stroke-opacity="1" stroke-width="1" stroke-linecap="butt" stroke-linejoin="miter" stroke-miterlimit="10"/></g><g><path fill="none" stroke="rgb(169,169,169)" d="M 485,270 L 485,300" stroke-opacity="1" stroke-width="1" stroke-linecap="butt" stroke-linejoin="miter" stroke-miterlimit="10"/></g><g><path fill="none" stroke="rgb(169,169,169)" d="M 622.5,180 L 622.5,190 L 485,190 L 485,210" stroke-opacity="1" stroke-width="1" stroke-linecap="butt" stroke-linejoin="miter" stroke-miterlimit="10"/></g><g><path fill="none" stroke="rgb(169,169,169)" d="M 635,270 L 635,300" stroke-opacity="1" stroke-width="1" stroke-linecap="butt" stroke-linejoin="miter" stroke-miterlimit="10"/></g><g><path fill="none" stroke="rgb(169,169,169)" d="M 660,270 L 660,280 L 785,280 L 785,300" stroke-opacity="1" stroke-width="1" stroke-linecap="butt" stroke-linejoin="miter" stroke-miterlimit="10"/></g><g><path fill="none" stroke="rgb(169,169,169)" d="M 647.5,180 L 647.5,210" stroke-opacity="1" stroke-width="1" stroke-linecap="butt" stroke-linejoin="miter" stroke-miterlimit="10"/></g><g><path fill="none" stroke="rgb(169,169,169)" d="M 635,60 L 635,120" stroke-opacity="1" stroke-width="1" stroke-linecap="butt" stroke-linejoin="miter" stroke-miterlimit="10"/></g><g><path fill="none" stroke="rgb(169,169,169)" d="M 640.5555555555555,60 L 640.5555555555555,100 L 785,100 L 785,120" stroke-opacity="1" stroke-width="1" stroke-linecap="butt" stroke-linejoin="miter" stroke-miterlimit="10"/></g><g transform="translate(610 0)"><g transform="scale(2.78)">
            <svg svgBox="0 0 18 18" fill="msportalfx-svg-placeholder" role="presentation" focusable="false"><g><title/><defs><linearGradient id="ygc3_0" x1="9.88" x2="11.52" y1="8.59" y2="10.23" gradientTransform="rotate(-.08 -285.464 -1454.08)" gradientUnits="userSpaceOnUse"><stop offset="0" stop-color="#86d633"/><stop offset=".24" stop-color="#83d232"/><stop offset=".5" stop-color="#7cc52f"/><stop offset=".76" stop-color="#6fb02a"/><stop offset="1" stop-color="#5e9624"/></linearGradient><linearGradient id="ygc3_1" x1="6.18" x2="7.81" y1="8.59" y2="10.23"/><linearGradient id="ygc3_2" x1="2.48" x2="4.11" y1="8.59" y2="10.23"/></defs><title>Icon-networking-61</title><circle cx="12.74" cy="8.99" r="1.16" fill="url(#ygc3_0)"/><circle cx="9.04" cy="9" r="1.16" fill="url(#ygc3_1)"/><circle cx="5.34" cy="9" r="1.16" fill="url(#ygc3_2)"/><path fill="#50e6ff" d="M6.182 13.638l-.664.665a.3.3 0 01-.424 0L.18 9.404a.6.6 0 01-.001-.848l.663-.666 5.34 5.324a.3.3 0 010 .425z"/><path fill="#1490df" d="M5.418 3.708l.666.664a.3.3 0 010 .424L.838 10.057l-.666-.663a.6.6 0 01-.001-.849L4.994 3.71a.3.3 0 01.424 0z"/><path fill="#50e6ff" d="M17.157 7.88l.663.666a.6.6 0 010 .848l-4.915 4.9a.3.3 0 01-.424 0l-.664-.666a.3.3 0 010-.424l5.34-5.324z"/><path fill="#1490df" d="M17.818 9.387l-.665.664-5.247-5.261a.3.3 0 010-.425l.674-.67a.3.3 0 01.424 0l4.823 4.836a.6.6 0 01-.002.849z"/></g></svg>
        </g></g><g transform="translate(460 120)"><g transform="scale(2.78)">
            <svg svgBox="0 0 18 18" fill="msportalfx-svg-placeholder" role="presentation" focusable="false"><g><title/><defs><linearGradient id="ygc3_6" x1="9.033" x2="9.033" y1="10.305" y2="7.695" gradientUnits="userSpaceOnUse"><stop offset="0" stop-color="#5e9624"/><stop offset=".241" stop-color="#6fb02a"/><stop offset=".501" stop-color="#7cc52f"/><stop offset=".756" stop-color="#83d232"/><stop offset="1" stop-color="#86d633"/></linearGradient></defs><path fill="url(#ygc3_6)" d="M9.031 7.7A1.305 1.305 0 1010.338 9a1.305 1.305 0 00-1.307-1.3z"/><path fill="#50e6ff" d="M6.34 13.375l-.626.629a.284.284 0 01-.402 0L.673 9.38a.568.568 0 010-.804l.626-.629 5.04 5.027a.284.284 0 01.002.402z"/><path fill="#1490df" d="M5.62 3.996l.627.626a.284.284 0 010 .402L1.295 9.99l-.626-.624a.568.568 0 010-.803L5.22 3.999a.284.284 0 01.401 0z"/><path fill="#50e6ff" d="M16.702 7.947l.627.629a.568.568 0 01-.001.803l-4.639 4.626a.284.284 0 01-.402 0l-.627-.63a.284.284 0 01.001-.401l5.041-5.027z"/><path fill="#1490df" d="M17.333 9.364l-.629.627-4.953-4.967a.284.284 0 010-.402l.628-.626a.284.284 0 01.402 0l4.552 4.566a.568.568 0 010 .803z"/></g></svg>
        </g></g><g transform="translate(610 120)"><g transform="scale(2.78)">
            <svg svgBox="0 0 18 18" fill="msportalfx-svg-placeholder" role="presentation" focusable="false"><g><title/><defs><linearGradient id="ygc3_7" x1="9.033" x2="9.033" y1="10.305" y2="7.695" gradientUnits="userSpaceOnUse"><stop offset="0" stop-color="#5e9624"/><stop offset=".241" stop-color="#6fb02a"/><stop offset=".501" stop-color="#7cc52f"/><stop offset=".756" stop-color="#83d232"/><stop offset="1" stop-color="#86d633"/></linearGradient></defs><path fill="url(#ygc3_7)" d="M9.031 7.7A1.305 1.305 0 1010.338 9a1.305 1.305 0 00-1.307-1.3z"/><path fill="#50e6ff" d="M6.34 13.375l-.626.629a.284.284 0 01-.402 0L.673 9.38a.568.568 0 010-.804l.626-.629 5.04 5.027a.284.284 0 01.002.402z"/><path fill="#1490df" d="M5.62 3.996l.627.626a.284.284 0 010 .402L1.295 9.99l-.626-.624a.568.568 0 010-.803L5.22 3.999a.284.284 0 01.401 0z"/><path fill="#50e6ff" d="M16.702 7.947l.627.629a.568.568 0 01-.001.803l-4.639 4.626a.284.284 0 01-.402 0l-.627-.63a.284.284 0 01.001-.401l5.041-5.027z"/><path fill="#1490df" d="M17.333 9.364l-.629.627-4.953-4.967a.284.284 0 010-.402l.628-.626a.284.284 0 01.402 0l4.552 4.566a.568.568 0 010 .803z"/></g></svg>
        </g></g><g transform="translate(460 210)"><g transform="scale(2.78)">
            <svg svgBox="0 0 18 18" fill="msportalfx-svg-placeholder" role="presentation" focusable="false"><g><title/><defs><linearGradient id="ygc3_8" x1="9.01" x2="9.01" y1="16.5" y2="1.5" gradientUnits="userSpaceOnUse"><stop offset="0" stop-color="#5e9641"/><stop offset=".34" stop-color="#6baa42"/><stop offset=".67" stop-color="#73b743"/><stop offset="1" stop-color="#76bb43"/></linearGradient></defs><title>Icon-networking-80</title><path fill="#ffca00" d="M15.89 2.91h1.27a.34.34 0 01.34.34v3.5a.34.34 0 01-.34.34h-1.27V2.91zm0 6.09h1.27a.34.34 0 01.34.34v5.86a.34.34 0 01-.34.34h-1.27V9z"/><rect width="13.76" height="15" x="2.13" y="1.5" fill="url(#ygc3_8)" rx=".69"/><path fill="#b4ec36" d="M5.9 12.9h-.71a.2.2 0 01-.19-.21V4.34a.19.19 0 01.19-.2h1.93a.19.19 0 01.19.2.2.2 0 01-.19.21H5.38v7.93h.52a.2.2 0 01.19.21.21.21 0 01-.19.21z"/><path fill="#b4ec36" d="M6 13.92H4.4a.2.2 0 01-.19-.21L4.08 3.38a.2.2 0 01.06-.15.16.16 0 01.13-.06h2.85v.41H4.47l.12 9.92H6zm6-.92h-1.59a.19.19 0 01-.14-.07.18.18 0 01-.06-.14V7.9a.19.19 0 01.19-.2h.91V5.45h.38v2.44a.2.2 0 01-.18.21h-.91v4.42H12z"/><rect width="6.14" height="3.11" x="7.07" y="2.29" fill="#365615" rx=".26"/><rect width="4.9" height="1.09" x="5.86" y="12.69" fill="#365615" rx=".26" transform="rotate(90 8.305 13.235)"/><rect width="4.9" height="1.09" x="3.99" y="12.71" fill="#365615" rx=".26" transform="rotate(90 6.44 13.26)"/><rect width="4.9" height="1.09" x="9.98" y="12.71" fill="#f2f2f2" rx=".26" transform="rotate(90 12.425 13.255)"/><ellipse cx="8.11" cy="8.06" fill="#f2f2f2" rx="1.04" ry="1.12"/><path fill="#3b3b3b" d="M2.11 12.25H.84a.34.34 0 01-.34-.3V6.09a.34.34 0 01.34-.34h1.27v6.5z"/></g></svg>
        </g></g><g transform="translate(460 300)"><g transform="scale(2.78)">
            <svg svgBox="0 0 18 18" fill="msportalfx-svg-placeholder" role="presentation" focusable="false"><g><title/><defs><linearGradient id="ygc3_9" x1="8.88" x2="8.88" y1="12.21" y2=".21" gradientUnits="userSpaceOnUse"><stop offset="0" stop-color="#0078d4"/><stop offset=".82" stop-color="#5ea0ef"/></linearGradient><linearGradient id="ygc3_10" x1="8.88" x2="8.88" y1="16.84" y2="12.21" gradientUnits="userSpaceOnUse"><stop offset=".15" stop-color="#ccc"/><stop offset="1" stop-color="#707070"/></linearGradient></defs><title>Icon-compute-21</title><rect width="18" height="12" x="-.12" y=".21" fill="url(#ygc3_9)" rx=".6"/><path fill="#50e6ff" d="M11.88 4.46v3.49l-3 1.76v-3.5l3-1.75z"/><path fill="#c3f1ff" d="M11.88 4.46l-3 1.76-3-1.76 3-1.75 3 1.75z"/><path fill="#9cebff" d="M8.88 6.22v3.49l-3-1.76V4.46l3 1.76z"/><path fill="#c3f1ff" d="M5.88 7.95l3-1.74v3.5l-3-1.76z"/><path fill="#9cebff" d="M11.88 7.95l-3-1.74v3.5l3-1.76z"/><path fill="url(#ygc3_10)" d="M12.49 15.84c-1.78-.28-1.85-1.56-1.85-3.63H7.11c0 2.07-.06 3.35-1.84 3.63a1 1 0 00-.89 1h9a1 1 0 00-.89-1z"/></g></svg>
        </g></g><g transform="translate(622.5 210)"><g transform="scale(2.78)">
            <svg svgBox="0 0 18 18" fill="msportalfx-svg-placeholder" role="presentation" focusable="false"><g><title/><defs><linearGradient id="ygc3_11" x1="9.01" x2="9.01" y1="16.5" y2="1.5" gradientUnits="userSpaceOnUse"><stop offset="0" stop-color="#5e9641"/><stop offset=".34" stop-color="#6baa42"/><stop offset=".67" stop-color="#73b743"/><stop offset="1" stop-color="#76bb43"/></linearGradient></defs><title>Icon-networking-80</title><path fill="#ffca00" d="M15.89 2.91h1.27a.34.34 0 01.34.34v3.5a.34.34 0 01-.34.34h-1.27V2.91zm0 6.09h1.27a.34.34 0 01.34.34v5.86a.34.34 0 01-.34.34h-1.27V9z"/><rect width="13.76" height="15" x="2.13" y="1.5" fill="url(#ygc3_11)" rx=".69"/><path fill="#b4ec36" d="M5.9 12.9h-.71a.2.2 0 01-.19-.21V4.34a.19.19 0 01.19-.2h1.93a.19.19 0 01.19.2.2.2 0 01-.19.21H5.38v7.93h.52a.2.2 0 01.19.21.21.21 0 01-.19.21z"/><path fill="#b4ec36" d="M6 13.92H4.4a.2.2 0 01-.19-.21L4.08 3.38a.2.2 0 01.06-.15.16.16 0 01.13-.06h2.85v.41H4.47l.12 9.92H6zm6-.92h-1.59a.19.19 0 01-.14-.07.18.18 0 01-.06-.14V7.9a.19.19 0 01.19-.2h.91V5.45h.38v2.44a.2.2 0 01-.18.21h-.91v4.42H12z"/><rect width="6.14" height="3.11" x="7.07" y="2.29" fill="#365615" rx=".26"/><rect width="4.9" height="1.09" x="5.86" y="12.69" fill="#365615" rx=".26" transform="rotate(90 8.305 13.235)"/><rect width="4.9" height="1.09" x="3.99" y="12.71" fill="#365615" rx=".26" transform="rotate(90 6.44 13.26)"/><rect width="4.9" height="1.09" x="9.98" y="12.71" fill="#f2f2f2" rx=".26" transform="rotate(90 12.425 13.255)"/><ellipse cx="8.11" cy="8.06" fill="#f2f2f2" rx="1.04" ry="1.12"/><path fill="#3b3b3b" d="M2.11 12.25H.84a.34.34 0 01-.34-.3V6.09a.34.34 0 01.34-.34h1.27v6.5z"/></g></svg>
        </g></g><g transform="translate(610 300)"><g transform="scale(2.78)">
            <svg svgBox="0 0 18 18" fill="msportalfx-svg-placeholder" role="presentation" focusable="false"><g><title/><defs><linearGradient id="ygc3_12" x1="8.88" x2="8.88" y1="12.21" y2=".21" gradientUnits="userSpaceOnUse"><stop offset="0" stop-color="#0078d4"/><stop offset=".82" stop-color="#5ea0ef"/></linearGradient><linearGradient id="ygc3_13" x1="8.88" x2="8.88" y1="16.84" y2="12.21" gradientUnits="userSpaceOnUse"><stop offset=".15" stop-color="#ccc"/><stop offset="1" stop-color="#707070"/></linearGradient></defs><title>Icon-compute-21</title><rect width="18" height="12" x="-.12" y=".21" fill="url(#ygc3_12)" rx=".6"/><path fill="#50e6ff" d="M11.88 4.46v3.49l-3 1.76v-3.5l3-1.75z"/><path fill="#c3f1ff" d="M11.88 4.46l-3 1.76-3-1.76 3-1.75 3 1.75z"/><path fill="#9cebff" d="M8.88 6.22v3.49l-3-1.76V4.46l3 1.76z"/><path fill="#c3f1ff" d="M5.88 7.95l3-1.74v3.5l-3-1.76z"/><path fill="#9cebff" d="M11.88 7.95l-3-1.74v3.5l3-1.76z"/><path fill="url(#ygc3_13)" d="M12.49 15.84c-1.78-.28-1.85-1.56-1.85-3.63H7.11c0 2.07-.06 3.35-1.84 3.63a1 1 0 00-.89 1h9a1 1 0 00-.89-1z"/></g></svg>
        </g></g><g transform="translate(760 300)"><g transform="scale(2.78)">
            <svg svgBox="0 0 18 18" fill="msportalfx-svg-placeholder" role="presentation" focusable="false"><g><title/><defs><linearGradient id="ygc3_14" x1="9.01" x2="9.01" y1=".75" y2="17.25" gradientUnits="userSpaceOnUse"><stop offset="0" stop-color="#5ea0ef"/><stop offset=".18" stop-color="#559cec"/><stop offset=".47" stop-color="#3c91e5"/><stop offset=".84" stop-color="#1380da"/><stop offset="1" stop-color="#0078d4"/></linearGradient></defs><title>Icon-networking-67</title><path fill="#0078d4" d="M16.36 8.4c0 4.84-5.85 8.74-7.12 9.53a.46.46 0 01-.48 0c-1.27-.79-7.12-4.69-7.12-9.53V2.58a.46.46 0 01.45-.46C6.64 2 5.59 0 9 0s2.36 2 6.91 2.12a.46.46 0 01.45.46z"/><path fill="#6bb9f2" d="M15.75 8.45c0 4.44-5.36 8-6.53 8.74a.43.43 0 01-.44 0c-1.17-.72-6.53-4.3-6.53-8.74V3.11a.42.42 0 01.41-.42C6.83 2.58 5.87.75 9 .75s2.17 1.83 6.34 1.94a.42.42 0 01.41.42z"/><path fill="url(#ygc3_14)" d="M9 9V.75c3.13 0 2.17 1.83 6.34 1.94a.43.43 0 01.41.43v5.34a4.89 4.89 0 010 .54zm0 0H2.28c.4 4.18 5.38 7.5 6.5 8.19a.39.39 0 00.18.06H9z"/><path fill="#50e6ff" d="M2.66 2.69C6.83 2.58 5.87.75 9 .75V9H2.28a4.89 4.89 0 010-.54V3.12a.43.43 0 01.38-.43zM15.72 9H9v8.25a.39.39 0 00.18-.06c1.16-.69 6.14-4.01 6.54-8.19z"/></g></svg>
        </g></g><g transform="translate(760 120)"><g transform="scale(2.78)">
            <svg svgBox="0 0 18 18" fill="msportalfx-svg-placeholder" role="presentation" focusable="false"><g><title/><defs><linearGradient id="ygc3_15" x1="9.033" x2="9.033" y1="10.305" y2="7.695" gradientUnits="userSpaceOnUse"><stop offset="0" stop-color="#5e9624"/><stop offset=".241" stop-color="#6fb02a"/><stop offset=".501" stop-color="#7cc52f"/><stop offset=".756" stop-color="#83d232"/><stop offset="1" stop-color="#86d633"/></linearGradient></defs><path fill="url(#ygc3_15)" d="M9.031 7.7A1.305 1.305 0 1010.338 9a1.305 1.305 0 00-1.307-1.3z"/><path fill="#50e6ff" d="M6.34 13.375l-.626.629a.284.284 0 01-.402 0L.673 9.38a.568.568 0 010-.804l.626-.629 5.04 5.027a.284.284 0 01.002.402z"/><path fill="#1490df" d="M5.62 3.996l.627.626a.284.284 0 010 .402L1.295 9.99l-.626-.624a.568.568 0 010-.803L5.22 3.999a.284.284 0 01.401 0z"/><path fill="#50e6ff" d="M16.702 7.947l.627.629a.568.568 0 01-.001.803l-4.639 4.626a.284.284 0 01-.402 0l-.627-.63a.284.284 0 01.001-.401l5.041-5.027z"/><path fill="#1490df" d="M17.333 9.364l-.629.627-4.953-4.967a.284.284 0 010-.402l.628-.626a.284.284 0 01.402 0l4.552 4.566a.568.568 0 010 .803z"/></g></svg>
        </g></g><g transform="translate(580.3416556574357 46.640625)"><text font-family="Arial" font-size="12px" font-style="normal" font-weight="normal" text-anchor="start" fill="rgb(0,0,0)" fill-opacity="1" dy="1em" transform="translate(0 0)">riverbed-communit...</text></g><g transform="translate(450.6675901916837 166.640625)"><text font-family="Arial" font-size="12px" font-style="normal" font-weight="normal" text-anchor="start" fill="rgb(0,0,0)" fill-opacity="1" dy="1em" transform="translate(0 0)">Performance</text></g><g transform="translate(606.998763000075 166.640625)"><text font-family="Arial" font-size="12px" font-style="normal" font-weight="normal" text-anchor="start" fill="rgb(0,0,0)" fill-opacity="1" dy="1em" transform="translate(0 0)">Monitoring</text></g><g transform="translate(456.3340191390645 256.640625)"><text font-family="Arial" font-size="12px" font-style="normal" font-weight="normal" text-anchor="start" fill="rgb(0,0,0)" fill-opacity="1" dy="1em" transform="translate(0 0)">Portal-nic1</text></g><g transform="translate(469.33312926693173 346.640625)"><text font-family="Arial" font-size="12px" font-style="normal" font-weight="normal" text-anchor="start" fill="rgb(0,0,0)" fill-opacity="1" dy="1em" transform="translate(0 0)">Portal</text></g><g transform="translate(625.9470712905827 256.640625)"><text font-family="Arial" font-size="12px" font-style="normal" font-weight="normal" text-anchor="start" fill="rgb(0,0,0)" fill-opacity="1" dy="1em" transform="translate(0 0)">Visibility</text></g><g transform="translate(613.4470712905827 346.640625)"><text font-family="Arial" font-size="12px" font-style="normal" font-weight="normal" text-anchor="start" fill="rgb(0,0,0)" fill-opacity="1" dy="1em" transform="translate(0 0)">Visibility</text></g><g transform="translate(763.4470712905827 346.640625)"><text font-family="Arial" font-size="12px" font-style="normal" font-weight="normal" text-anchor="start" fill="rgb(0,0,0)" fill-opacity="1" dy="1em" transform="translate(0 0)">Visibility</text></g><g transform="translate(756.7791339711068 166.640625)"><text font-family="Arial" font-size="12px" font-style="normal" font-weight="normal" text-anchor="start" fill="rgb(0,0,0)" fill-opacity="1" dy="1em" transform="translate(0 0)">AzureBastionSubnet</text></g></g></svg>